<?xml version="1.0" standalone="no"?>
<!DOCTYPE svg PUBLIC "-//W3C//DTD SVG 20010904//EN"
 "http://www.w3.org/TR/2001/REC-SVG-20010904/DTD/svg10.dtd">
<svg version="1.0" xmlns="http://www.w3.org/2000/svg"
 width="3840.000000pt" height="2160.000000pt" viewBox="0 0 3840.000000 2160.000000"
 preserveAspectRatio="xMidYMid meet">

<g transform="translate(0.000000,2160.000000) scale(0.100000,-0.100000)"
fill="#000000" stroke="none">
<path d="M17680 20713 c-37 -4 -345 -48 -440 -63 -162 -25 -642 -126 -755
-159 -16 -5 -68 -19 -115 -31 -834 -221 -1641 -564 -2410 -1023 -1135 -678
-2168 -1647 -2963 -2776 -162 -231 -507 -765 -507 -787 0 -1 -31 -56 -68 -121
-119 -203 -286 -525 -369 -708 -76 -166 -114 -250 -122 -270 -5 -11 -13 -31
-19 -45 -87 -198 -181 -438 -262 -675 -47 -138 -162 -497 -180 -565 -5 -19
-18 -66 -29 -105 -20 -71 -102 -410 -121 -500 -6 -27 -15 -68 -20 -90 -45
-207 -121 -659 -150 -890 -6 -49 -15 -119 -20 -155 -9 -64 -20 -203 -40 -486
-13 -183 -13 -821 0 -1044 16 -282 45 -565 80 -795 50 -320 122 -714 150 -815
5 -19 35 -138 66 -265 62 -254 79 -291 148 -325 83 -40 186 -21 243 44 54 61
61 104 33 201 -19 65 -128 555 -150 670 -112 598 -160 1110 -160 1706 0 455
26 817 91 1289 15 107 48 317 59 370 5 25 18 97 30 160 45 239 140 643 196
830 66 222 90 299 151 480 201 605 511 1285 853 1870 273 467 628 976 954
1370 245 295 654 725 916 962 768 695 1587 1223 2490 1607 80 34 154 66 165
71 183 81 729 262 1075 354 367 99 984 222 1255 251 89 9 139 31 183 79 66 72
80 171 38 261 -48 104 -120 135 -276 118z"/>
<path d="M20321 20711 c-110 -28 -181 -180 -137 -295 18 -47 66 -106 101 -124
11 -6 68 -16 125 -22 121 -13 390 -54 500 -77 41 -8 100 -19 130 -24 49 -8
153 -29 295 -60 90 -20 119 -27 180 -43 33 -10 103 -28 155 -42 52 -14 109
-29 125 -34 17 -5 64 -19 105 -31 112 -32 478 -155 535 -179 11 -4 97 -38 190
-75 94 -37 198 -81 233 -96 34 -16 64 -29 66 -29 2 0 46 -20 98 -44 51 -24
134 -62 183 -85 125 -58 380 -189 470 -241 17 -10 51 -29 78 -44 80 -44 139
-78 186 -106 85 -50 353 -220 395 -250 22 -17 102 -73 176 -125 74 -52 182
-131 240 -175 58 -45 118 -91 134 -103 16 -12 63 -50 104 -85 41 -35 98 -81
126 -101 159 -119 678 -619 914 -881 136 -151 327 -377 402 -475 14 -18 68
-88 120 -156 125 -163 227 -305 295 -410 6 -8 58 -87 116 -175 96 -146 174
-268 219 -348 9 -17 40 -69 67 -116 120 -202 369 -696 471 -935 97 -228 212
-514 242 -605 16 -47 55 -164 88 -260 33 -96 70 -209 82 -250 12 -41 26 -86
30 -100 8 -25 22 -79 42 -155 6 -22 14 -51 19 -65 10 -28 85 -329 100 -405 6
-27 15 -68 20 -90 9 -38 13 -58 40 -202 6 -32 15 -78 19 -103 83 -435 123
-781 155 -1325 26 -462 15 -915 -36 -1435 -30 -314 -91 -691 -170 -1055 -12
-55 -25 -116 -30 -135 -4 -19 -17 -73 -27 -121 -11 -47 -27 -110 -36 -141 -39
-134 1 -229 113 -266 79 -27 179 5 219 70 18 30 89 288 132 483 10 44 24 109
33 145 8 36 20 94 27 130 6 36 15 83 20 105 34 161 90 518 109 705 34 323 36
355 51 765 21 603 -5 1177 -76 1685 -61 433 -170 963 -288 1393 -9 31 -22 81
-30 110 -25 92 -170 546 -186 582 -5 11 -16 40 -24 65 -70 212 -251 658 -374
924 -55 120 -299 605 -311 620 -5 6 -24 40 -43 76 -49 92 -66 121 -143 245
-37 61 -74 122 -82 137 -19 37 -325 495 -388 581 -183 251 -408 530 -609 757
-122 138 -552 573 -680 689 -39 36 -92 83 -117 107 -125 116 -514 430 -717
581 -85 62 -577 393 -586 393 -4 0 -27 14 -51 30 -24 17 -46 30 -49 30 -2 0
-40 22 -83 48 -85 53 -142 86 -243 140 -36 19 -87 47 -115 62 -63 35 -395 201
-455 228 -94 42 -147 65 -198 88 -29 13 -55 24 -57 24 -2 0 -29 11 -59 25 -30
14 -57 25 -60 25 -3 0 -47 17 -98 39 -222 93 -602 228 -788 281 -25 7 -56 16
-70 21 -34 11 -332 94 -395 108 -27 7 -69 17 -92 22 -40 8 -73 16 -175 38 -24
6 -54 12 -68 14 -14 3 -59 12 -100 20 -70 15 -414 72 -575 96 -110 16 -217 21
-254 12z m6 -37 c-3 -3 -12 -4 -19 -1 -8 3 -5 6 6 6 11 1 17 -2 13 -5z"/>
<path d="M19005 18815 c-243 -40 -450 -149 -621 -327 -161 -167 -249 -334
-293 -555 -30 -153 -34 -243 -16 -378 34 -255 138 -474 310 -654 100 -104 175
-161 284 -217 146 -75 342 -124 491 -124 180 1 409 64 565 157 379 226 602
702 531 1133 -13 79 -19 103 -44 200 -17 68 -72 186 -121 260 -141 217 -310
355 -551 451 -157 62 -361 83 -535 54z"/>
<path d="M14850 17373 c27 -21 140 -93 570 -365 307 -194 652 -422 820 -543
58 -41 125 -90 150 -107 147 -104 448 -358 619 -523 222 -215 500 -555 609
-745 11 -19 48 -84 82 -145 168 -293 286 -612 350 -940 6 -33 16 -78 20 -100
5 -22 16 -121 26 -220 32 -351 -9 -783 -107 -1120 -77 -266 -224 -657 -346
-925 -312 -684 -443 -1036 -547 -1475 -123 -524 -135 -1136 -30 -1685 20 -106
123 -452 159 -537 38 -90 161 -326 169 -327 6 -1 8 53 5 129 -23 708 43 1219
228 1775 64 193 196 531 276 705 97 212 365 728 507 975 20 36 61 110 90 165
29 55 56 105 60 110 4 6 27 46 51 90 23 44 62 116 86 160 60 109 302 595 338
675 15 36 43 97 60 135 72 158 186 463 234 624 26 85 51 188 91 366 64 288 69
715 11 1022 -36 185 -116 416 -215 618 -129 263 -244 427 -440 632 -299 312
-697 579 -1196 802 -111 50 -492 199 -595 233 -303 100 -420 136 -585 179 -41
11 -88 24 -105 29 -142 40 -215 59 -455 119 -259 65 -603 147 -810 192 -25 6
-61 14 -80 19 -19 4 -55 11 -80 15 l-45 7 25 -19z"/>
<path d="M23260 17338 c-77 -43 -462 -238 -535 -270 -33 -15 -89 -40 -125 -56
-90 -40 -152 -69 -202 -91 -36 -16 -143 -59 -573 -231 -33 -13 -123 -46 -260
-95 -71 -26 -139 -51 -150 -55 -54 -25 -546 -180 -760 -240 -235 -66 -322 -92
-410 -120 -16 -5 -57 -17 -90 -25 -33 -9 -76 -21 -95 -27 -19 -5 -51 -13 -70
-18 -52 -12 -331 -86 -440 -116 -52 -14 -111 -30 -130 -34 -19 -5 -53 -14 -75
-20 -22 -6 -59 -16 -82 -21 -24 -6 -43 -13 -43 -15 0 -3 11 -20 23 -37 58 -79
156 -228 189 -287 87 -159 128 -239 148 -290 12 -30 32 -78 46 -108 13 -29 24
-58 24 -65 0 -7 4 -17 8 -23 5 -5 19 -43 31 -84 12 -41 31 -104 41 -140 61
-206 85 -425 84 -775 -1 -159 -4 -308 -8 -330 -5 -28 19 11 83 137 50 97 108
205 129 240 201 327 250 397 423 613 132 166 258 303 445 487 231 227 506 461
858 731 78 59 202 153 276 210 201 153 212 162 380 296 226 181 258 208 450
382 127 115 288 279 371 378 30 35 67 79 82 98 35 41 27 41 -43 1z m-3743
-1384 c-3 -3 -12 -4 -19 -1 -8 3 -5 6 6 6 11 1 17 -2 13 -5z m-90 -316 c-3 -8
-6 -5 -6 6 -1 11 2 17 5 13 3 -3 4 -12 1 -19z"/>
<path d="M13729 15939 c-53 -5 -121 -12 -150 -17 l-54 -7 0 -2900 0 -2900 201
-6 c335 -11 607 -49 964 -135 157 -38 521 -151 562 -174 10 -6 22 -10 27 -10
5 0 74 -27 153 -61 471 -200 831 -412 1158 -682 52 -43 96 -73 98 -68 8 24
-165 300 -260 416 -84 102 -298 314 -400 396 -322 258 -648 434 -1075 580
-129 44 -299 91 -503 139 -74 17 -269 48 -350 56 -41 3 -83 11 -92 16 -17 8
-18 134 -18 2418 0 2319 1 2410 18 2419 31 17 386 34 547 27 579 -26 1149
-147 1758 -373 66 -24 138 -52 160 -62 23 -10 71 -31 107 -47 115 -50 411
-202 534 -274 65 -39 121 -69 122 -67 11 10 -168 206 -272 299 -293 262 -574
442 -975 622 -274 122 -739 269 -1003 317 -136 24 -304 50 -421 64 -154 19
-691 28 -836 14z"/>
<path d="M23715 15928 c-141 -18 -291 -39 -335 -47 -196 -37 -364 -77 -545
-131 -16 -5 -46 -13 -65 -18 -53 -14 -242 -79 -328 -113 -80 -32 -104 -42
-184 -78 -26 -11 -50 -21 -53 -21 -13 0 -299 -146 -407 -208 -98 -56 -249
-157 -398 -265 -93 -68 -428 -392 -417 -403 3 -3 41 16 84 42 156 94 212 124
448 233 159 74 199 92 270 121 102 40 120 48 148 60 119 50 591 189 782 230
33 7 74 16 90 20 17 4 64 13 105 20 41 6 93 15 115 20 47 11 147 24 345 46
117 14 202 16 445 11 165 -4 315 -10 333 -14 l33 -8 0 -2423 c0 -1333 -3
-2427 -6 -2432 -4 -6 -34 -10 -68 -10 -74 0 -333 -34 -452 -59 -107 -22 -359
-85 -435 -107 -106 -32 -259 -82 -285 -94 -11 -5 -40 -16 -65 -24 -56 -18
-177 -71 -335 -146 -105 -49 -157 -77 -302 -161 -18 -11 -50 -28 -70 -40 -45
-25 -196 -129 -300 -206 -209 -154 -460 -413 -604 -621 -66 -95 -57 -130 20
-78 180 119 387 248 476 296 28 15 104 56 170 92 129 71 305 157 425 208 41
18 103 46 138 61 34 16 66 29 71 29 4 0 41 14 82 31 117 48 539 187 649 213
36 8 112 26 170 40 139 33 390 73 650 105 64 8 344 20 511 21 3 0 6 1301 5
2892 l-1 2892 -35 7 c-139 28 -703 39 -875 17z m580 -18 c12 -5 -40 -8 -135
-8 -92 0 -145 3 -130 8 34 11 240 11 265 0z m-78 -562 c-2 -13 -4 -5 -4 17 -1
22 1 32 4 23 2 -10 2 -28 0 -40z m-2967 -6322 c0 -3 -4 -8 -10 -11 -5 -3 -10
-1 -10 4 0 6 5 11 10 11 6 0 10 -2 10 -4z"/>
<path d="M12905 15109 c-217 -16 -319 -30 -337 -46 -17 -15 -18 -173 -18
-3043 0 -1665 3 -3029 6 -3032 3 -3 31 0 62 7 322 74 899 113 1245 85 209 -17
350 -30 412 -40 33 -5 96 -14 140 -20 86 -12 110 -16 310 -56 136 -27 328 -73
430 -104 279 -85 400 -126 625 -212 158 -61 512 -226 655 -306 214 -119 232
-129 261 -148 36 -24 29 -5 -28 77 -185 265 -450 513 -775 726 -79 51 -145 93
-149 93 -3 0 -18 8 -32 19 -74 51 -379 194 -561 262 -556 209 -1295 326 -1816
289 -77 -6 -182 -13 -232 -17 l-93 -6 0 2515 c0 2210 2 2517 15 2528 8 7 59
14 122 17 60 3 114 10 121 16 14 11 18 342 4 364 -21 33 -173 46 -367 32z"/>
<path d="M24894 15093 c-8 -5 -13 -66 -14 -183 -2 -96 -2 -180 -1 -187 0 -7
34 -14 89 -18 48 -3 104 -8 125 -11 l37 -6 0 -2530 0 -2531 -82 6 c-46 3 -132
10 -193 17 -141 16 -605 7 -765 -14 -282 -38 -300 -41 -480 -76 -164 -33 -474
-118 -615 -169 -33 -13 -85 -31 -115 -41 -358 -119 -853 -395 -1152 -642 -179
-148 -512 -512 -486 -532 2 -2 50 24 108 56 195 111 553 285 755 368 11 5 88
34 170 65 83 31 159 60 170 65 11 4 38 13 60 19 22 7 49 16 60 20 11 5 54 19
95 31 41 13 95 29 120 37 130 42 498 129 645 154 660 111 1063 131 1600 79
173 -17 453 -58 507 -76 16 -5 18 3 18 73 1 43 1 1405 0 3028 0 2381 -3 2952
-13 2962 -7 7 -46 18 -87 23 -95 14 -541 24 -556 13z m429 -30 c-18 -2 -48 -2
-65 0 -18 2 -4 4 32 4 36 0 50 -2 33 -4z m94 -19 c-3 -3 -12 -4 -19 -1 -8 3
-5 6 6 6 11 1 17 -2 13 -5z m-500 -186 c-2 -13 -4 -5 -4 17 -1 22 1 32 4 23 2
-10 2 -28 0 -40z m250 -210 c-3 -8 -6 -5 -6 6 -1 11 2 17 5 13 3 -3 4 -12 1
-19z m0 -4935 c-3 -10 -5 -4 -5 12 0 17 2 24 5 18 2 -7 2 -21 0 -30z"/>
<path d="M14684 13255 c-2 -5 -3 -363 -2 -795 l3 -785 140 0 140 0 3 283 2
283 142 -3 141 -3 158 -265 c87 -146 163 -273 169 -282 9 -16 29 -18 175 -18
109 0 165 4 165 11 0 5 -31 60 -70 120 -38 61 -70 112 -70 114 0 2 -33 55 -73
117 -95 148 -147 234 -147 244 0 5 32 24 71 43 173 84 260 251 245 471 -16
244 -132 385 -369 450 -71 19 -105 21 -448 23 -240 1 -373 -2 -375 -8z m732
-270 c53 -15 114 -68 141 -119 21 -41 28 -150 13 -204 -16 -62 -79 -126 -147
-152 -50 -18 -74 -20 -251 -18 l-197 3 -3 253 -2 252 198 0 c145 0 212 -4 248
-15z"/>
<path d="M20970 12470 l0 -791 140 3 140 3 2 322 c2 211 7 326 14 333 7 7 118
9 345 8 l334 -3 5 -333 5 -333 135 0 135 0 3 790 2 791 -140 0 -140 0 0 -314
c0 -173 -3 -321 -6 -330 -5 -14 -45 -16 -345 -16 -186 0 -339 1 -340 3 0 1 -3
148 -5 327 l-5 325 -139 3 -139 3 -1 -791z"/>
<path d="M22522 12470 l-1 -790 134 0 134 0 3 353 3 352 28 47 c66 113 213
157 318 96 109 -64 112 -77 117 -500 l4 -347 125 -3 c68 -2 127 -1 129 1 2 2
4 169 4 370 -1 389 -6 449 -49 533 -29 55 -95 124 -145 150 -156 80 -351 57
-471 -57 -67 -62 -65 -70 -65 275 l0 310 -134 0 -134 0 0 -790z"/>
<path d="M19606 12858 c-31 -84 -32 -87 -76 -193 -84 -202 -302 -640 -445
-895 -23 -41 -57 -102 -75 -135 -62 -113 -77 -140 -184 -322 l-106 -183 0
-103 c0 -97 4 -144 31 -352 40 -313 168 -711 339 -1052 83 -164 89 -175 185
-333 255 -417 606 -832 989 -1168 191 -168 585 -463 651 -489 9 -3 -37 101
-109 248 -109 221 -318 685 -355 789 -7 19 -17 44 -21 55 -73 181 -163 438
-240 685 -23 74 -52 169 -65 210 -44 139 -73 243 -139 505 -37 145 -114 483
-140 615 -157 800 -213 1330 -205 1933 2 141 2 257 -2 257 -3 0 -18 -33 -33
-72z"/>
<path d="M16644 12766 c-72 -18 -139 -59 -177 -111 -47 -64 -57 -59 -57 30 l0
75 -135 0 -135 0 2 -542 3 -543 135 0 135 0 5 320 c6 353 7 365 73 434 53 55
123 81 223 81 l85 0 -3 133 -3 132 -50 2 c-27 1 -73 -4 -101 -11z"/>
<path d="M21190 8990 c0 -5 5 -10 10 -10 6 0 10 5 10 10 0 6 -4 10 -10 10 -5
0 -10 -4 -10 -10z"/>
<path d="M7860 7064 c-116 -9 -259 -36 -356 -69 -376 -125 -600 -349 -684
-682 -28 -111 -28 -313 1 -431 55 -227 194 -409 418 -545 146 -89 297 -145
696 -258 297 -85 423 -139 507 -217 73 -68 91 -110 92 -207 0 -99 -23 -153
-95 -220 -99 -92 -252 -132 -469 -121 -296 15 -560 126 -802 339 -48 43 -89
77 -92 77 -7 0 -338 -402 -384 -467 -13 -18 -20 -38 -17 -43 17 -27 190 -169
275 -225 314 -207 658 -304 1076 -305 416 0 731 107 956 326 192 187 281 429
264 726 -15 287 -139 504 -379 667 -131 89 -379 190 -687 280 -132 39 -354
111 -390 128 -95 42 -128 62 -175 105 -71 65 -99 130 -93 218 6 78 32 133 87
183 81 73 178 105 341 113 258 13 508 -62 773 -233 54 -35 101 -63 105 -63 4
1 36 44 71 96 35 53 109 159 165 236 56 77 107 148 115 159 12 16 10 22 -19
46 -196 166 -530 315 -816 363 -125 21 -364 33 -484 24z"/>
<path d="M19330 7049 c-134 -20 -226 -40 -315 -67 -66 -20 -253 -97 -305 -125
-90 -49 -245 -154 -302 -205 -29 -27 -63 -57 -76 -68 -34 -28 -152 -170 -199
-239 -43 -63 -121 -211 -161 -304 -40 -94 -67 -189 -102 -361 -31 -150 -21
-494 19 -685 54 -255 183 -513 368 -738 153 -186 446 -384 690 -465 214 -72
372 -96 623 -97 395 0 674 82 980 289 91 62 244 200 290 261 8 11 32 43 52 71
l37 51 -27 25 c-15 13 -56 47 -92 74 -35 27 -71 54 -80 61 -37 29 -199 161
-239 195 l-44 38 -70 -75 c-183 -199 -371 -306 -624 -355 -67 -13 -290 -8
-378 9 -199 38 -386 141 -530 292 -109 115 -119 130 -184 264 -83 170 -105
278 -104 510 0 177 7 221 55 350 61 166 145 294 269 410 79 74 114 99 214 149
273 136 601 153 865 43 69 -28 91 -39 161 -79 80 -45 309 -252 309 -279 0 -18
18 -8 76 42 32 28 70 61 84 73 64 54 167 143 190 164 14 12 55 48 92 80 l66
57 -21 30 c-39 56 -221 231 -311 297 -167 125 -420 238 -621 279 -146 30 -249
39 -419 38 -100 -1 -206 -5 -236 -10z"/>
<path d="M22880 7046 c-372 -51 -720 -218 -969 -464 -117 -117 -132 -135 -214
-254 -180 -261 -277 -590 -277 -936 0 -137 4 -181 31 -342 29 -173 128 -428
227 -585 266 -421 690 -687 1202 -756 139 -19 451 -16 585 5 226 35 306 60
520 161 504 240 840 719 914 1306 30 237 -1 542 -79 769 -37 106 -139 309
-204 405 -106 156 -283 325 -456 437 -91 58 -159 92 -275 138 -182 71 -235 85
-466 120 -86 13 -431 10 -539 -4z m438 -616 c26 -6 70 -15 97 -21 65 -14 176
-55 240 -89 27 -15 70 -38 94 -51 99 -53 245 -215 340 -377 97 -164 146 -485
107 -697 -68 -369 -252 -619 -571 -775 -66 -32 -131 -61 -145 -63 -14 -3 -56
-13 -95 -21 -46 -11 -119 -16 -217 -16 -178 0 -261 14 -404 70 -183 71 -336
194 -455 365 -57 81 -119 201 -119 229 0 8 -4 17 -9 20 -5 3 -11 18 -14 33 -3
16 -13 57 -23 93 -14 51 -17 105 -17 250 -1 160 2 197 22 275 13 50 27 94 32
99 5 6 9 16 9 24 0 23 63 144 110 212 47 68 154 180 230 243 57 46 246 141
325 162 145 40 366 56 463 35z"/>
<path d="M10267 7003 l-227 -3 2 -1633 3 -1632 345 2 345 1 0 1632 0 1632
-120 2 c-66 1 -222 1 -348 -1z"/>
<path d="M11444 7001 c-2 -2 -4 -145 -4 -318 l0 -313 505 0 505 0 2 -1317 3
-1318 343 -1 c188 -1 345 2 348 7 3 5 6 597 7 1316 l2 1308 505 5 505 5 3 313
c1 171 -1 312 -5 312 -659 3 -2716 4 -2719 1z"/>
<path d="M14862 6995 c-4 -5 -7 -741 -7 -1635 l0 -1625 1070 -1 c589 0 1123 1
1188 4 l117 5 0 308 0 309 -829 0 c-651 0 -831 3 -838 13 -11 14 -18 652 -8
680 7 16 51 17 726 17 l719 0 0 305 0 305 -547 2 c-302 1 -621 0 -710 -1 -109
-3 -167 0 -176 7 -11 9 -14 80 -15 334 -1 178 2 329 6 335 6 10 185 13 818 15
l809 3 0 314 0 314 -1158 1 c-762 1 -1161 -2 -1165 -9z"/>
<path d="M25620 6995 c0 -3 0 -735 0 -1627 l0 -1623 340 -3 340 -2 2 547 3
548 265 0 265 0 101 -155 c56 -85 132 -202 170 -258 38 -57 71 -108 73 -114 2
-6 78 -123 169 -262 91 -138 172 -263 181 -278 l16 -28 413 0 c226 0 412 3
412 8 -1 4 -19 32 -40 62 -22 30 -78 111 -125 180 -46 69 -149 218 -227 333
-311 452 -408 597 -408 612 0 9 14 21 30 27 59 20 191 88 248 127 65 45 194
175 238 241 61 91 117 232 145 365 20 94 18 393 -4 483 -52 214 -125 352 -258
484 -176 175 -419 282 -731 323 -90 12 -259 15 -865 15 -414 0 -753 -2 -753
-5z m1583 -638 c180 -63 282 -172 321 -341 21 -89 20 -137 -4 -230 -37 -145
-102 -227 -225 -287 -125 -60 -135 -61 -574 -66 -329 -4 -405 -2 -412 9 -11
16 -12 932 -2 942 5 4 190 6 413 4 l405 -3 78 -28z"/>
<path d="M29060 5370 l0 -1630 345 0 345 0 2 548 3 547 410 6 c450 7 522 14
690 61 358 99 617 332 716 642 46 142 53 196 53 376 1 193 -10 266 -56 400
-54 155 -109 243 -217 351 -82 82 -122 109 -246 174 -116 60 -178 83 -280 106
-209 47 -249 49 -1027 49 l-738 0 0 -1630z m1514 1006 c134 -38 252 -131 307
-244 l34 -67 -1 -145 c-1 -102 -5 -155 -15 -180 -62 -149 -160 -233 -334 -286
-54 -17 -99 -19 -435 -19 l-375 0 -3 474 c-2 373 1 477 10 483 7 5 180 7 383
5 309 -3 380 -7 429 -21z"/>
<path d="M11265 2786 c-30 -13 -55 -51 -55 -83 0 -9 11 -31 26 -50 21 -27 32
-33 64 -33 30 0 43 6 64 31 42 49 32 105 -24 134 -35 18 -37 18 -75 1z"/>
<path d="M18014 2781 c-51 -31 -55 -90 -11 -138 39 -43 127 -16 141 42 12 49
-38 115 -87 115 -7 0 -26 -9 -43 -19z"/>
<path d="M12179 2771 c-18 -14 -24 -29 -24 -59 0 -88 95 -126 150 -60 51 60
14 138 -65 138 -22 0 -47 -8 -61 -19z"/>
<path d="M14502 2765 c-4 -5 -7 -73 -8 -150 -1 -77 -2 -142 -3 -144 0 -2 -17
9 -36 23 -42 32 -106 56 -151 56 -56 0 -144 -39 -189 -85 -115 -114 -113 -339
3 -458 56 -58 94 -72 192 -72 81 0 88 2 129 32 47 35 64 34 59 0 -3 -21 1 -22
70 -22 l73 0 -1 409 c0 226 -2 412 -5 414 -9 9 -127 6 -133 -3z m-109 -359
c114 -49 143 -209 54 -304 -37 -39 -83 -53 -133 -42 -51 12 -84 39 -111 91
-47 91 -16 204 67 247 51 26 78 27 123 8z"/>
<path d="M19435 2772 c-3 -3 -5 -191 -5 -419 l0 -413 75 0 75 0 0 410 c0 320
-3 412 -12 415 -22 6 -128 12 -133 7z"/>
<path d="M8930 2741 c-68 -11 -131 -43 -172 -89 -29 -32 -38 -51 -43 -97 -18
-140 39 -223 180 -263 22 -6 73 -21 114 -33 53 -15 83 -30 103 -51 32 -35 34
-47 12 -89 -43 -84 -200 -75 -321 17 -17 13 -36 24 -41 24 -10 0 -82 -104 -82
-117 1 -16 108 -74 173 -95 91 -27 250 -23 313 10 90 46 142 138 131 232 -13
110 -71 162 -232 209 -135 39 -149 45 -174 77 -27 35 -27 66 2 100 35 41 109
44 207 10 41 -15 82 -29 91 -32 11 -4 26 9 47 44 18 27 32 53 32 58 0 13 -75
54 -128 69 -62 18 -156 25 -212 16z"/>
<path d="M16028 2720 c-103 -39 -181 -111 -226 -208 -25 -52 -27 -68 -27 -177
0 -110 2 -125 28 -181 31 -67 108 -150 171 -183 58 -30 140 -44 232 -39 95 5
186 43 242 101 l34 35 -52 52 -51 53 -32 -31 c-68 -65 -183 -91 -261 -58 -47
20 -110 79 -132 124 -64 133 -14 306 107 366 92 45 195 33 280 -35 20 -16 41
-29 45 -28 5 1 29 23 53 50 44 49 44 49 25 70 -27 31 -91 70 -149 91 -67 24
-221 24 -287 -2z"/>
<path d="M20072 2726 c-9 -16 -12 -769 -3 -780 6 -7 37 -10 80 -8 l71 4 2 161
3 162 180 0 180 0 3 -162 2 -163 75 0 75 0 0 395 0 395 -75 0 -75 0 -2 -132
c0 -73 0 -143 1 -155 1 -12 -4 -25 -10 -29 -6 -4 -85 -8 -175 -10 -121 -2
-165 1 -173 10 -6 7 -12 78 -13 162 l-3 149 -68 5 c-38 3 -72 1 -75 -4z"/>
<path d="M26040 2335 l0 -395 75 0 75 0 0 255 c0 222 2 255 15 255 9 0 18 -8
21 -17 13 -40 197 -409 207 -415 11 -7 94 -5 100 3 2 2 52 102 111 222 98 196
125 242 126 205 0 -7 0 -124 0 -260 l-1 -246 68 -4 c37 -2 71 -2 76 0 4 2 7
181 7 398 l0 394 -105 0 -104 0 -32 -67 c-17 -38 -65 -136 -105 -220 -41 -83
-74 -156 -74 -162 0 -6 -6 -11 -14 -11 -13 0 -99 165 -208 398 l-29 62 -104 0
-105 0 0 -395z"/>
<path d="M27117 2724 c-4 -4 -7 -182 -7 -396 l0 -388 80 0 80 0 -2 393 -3 392
-70 3 c-39 1 -74 0 -78 -4z"/>
<path d="M27460 2336 l0 -396 75 0 75 0 0 104 c0 57 3 111 6 120 5 13 25 16
113 16 183 0 273 39 323 140 22 44 27 69 28 126 0 128 -43 204 -146 254 -46
23 -62 24 -261 28 l-213 4 0 -396z m385 243 c49 -24 70 -63 70 -129 0 -51 -4
-63 -29 -89 -17 -17 -46 -36 -65 -41 -51 -14 -184 -13 -199 2 -17 17 -17 249
1 267 16 17 182 10 222 -10z"/>
<path d="M28130 2724 c0 -4 14 -29 30 -56 17 -26 30 -51 30 -54 0 -3 18 -32
41 -66 23 -33 74 -118 115 -189 l74 -129 0 -144 c0 -78 2 -145 4 -147 2 -2 36
-3 75 -1 l71 4 0 150 0 151 54 86 c64 103 212 359 222 384 5 15 -2 17 -74 17
-78 0 -81 -1 -101 -29 -12 -16 -21 -32 -21 -35 0 -3 -14 -29 -31 -58 -18 -29
-41 -69 -52 -88 -70 -124 -69 -124 -84 -104 -8 11 -33 51 -55 89 -22 39 -61
105 -86 148 l-45 77 -83 0 c-46 0 -84 -3 -84 -6z"/>
<path d="M28968 2718 c-2 -7 -5 -185 -7 -396 l-2 -383 78 3 78 3 -1 258 c-1
186 2 257 10 257 6 0 32 -44 58 -97 132 -274 157 -325 168 -338 15 -18 96 -20
107 -2 7 12 100 207 171 360 20 42 41 76 46 74 7 -2 12 -90 13 -255 1 -139 4
-256 7 -260 2 -4 36 -6 75 -4 l71 4 0 394 0 394 -104 0 -105 0 -56 -117 c-31
-65 -82 -171 -112 -235 -31 -65 -59 -118 -62 -118 -6 0 -90 169 -185 373 l-45
97 -99 0 c-71 0 -101 -4 -104 -12z"/>
<path d="M30037 2723 c-4 -3 -7 -181 -7 -395 l0 -388 290 0 291 0 -3 63 -3 62
-208 3 -208 2 3 98 3 97 170 3 c93 1 172 6 175 11 3 5 3 34 2 65 l-4 56 -171
2 -172 3 0 95 0 95 195 1 195 2 3 66 3 66 -274 0 c-150 0 -277 -3 -280 -7z"/>
<path d="M18335 2708 c-2 -7 -6 -47 -7 -88 l-3 -75 -35 -5 -35 -5 0 -55 c0
-53 1 -55 28 -56 15 -1 32 -5 37 -10 4 -5 10 -88 12 -184 4 -196 10 -218 75
-267 33 -25 44 -28 117 -28 67 1 88 5 119 24 42 26 43 30 20 79 -22 48 -31 53
-64 36 -37 -19 -72 -18 -98 4 -21 16 -22 24 -19 182 l3 165 73 3 72 3 0 54 0
55 -75 0 -74 0 -3 88 -3 87 -68 3 c-48 2 -69 -1 -72 -10z"/>
<path d="M9593 2528 c-80 -26 -134 -73 -170 -146 -25 -51 -28 -68 -28 -152 1
-83 4 -101 27 -145 31 -59 66 -94 128 -126 39 -21 59 -24 150 -24 94 0 110 3
155 26 28 15 58 35 67 46 17 18 16 21 -26 62 l-44 43 -39 -26 c-71 -47 -157
-47 -212 0 -33 27 -64 81 -55 95 3 5 102 9 220 9 l214 0 0 64 c0 139 -74 241
-205 281 -66 20 -108 18 -182 -7z m150 -112 c43 -18 75 -55 83 -94 l7 -32
-141 0 c-80 0 -143 4 -147 10 -15 25 48 100 100 118 42 14 61 14 98 -2z"/>
<path d="M10370 2530 c-30 -10 -65 -30 -77 -44 -30 -35 -41 -33 -45 12 l-3 37
-70 0 -70 0 -3 -298 -2 -298 76 3 76 3 -1 145 c-2 176 12 236 64 275 19 16 54
29 82 33 l48 7 0 69 c0 38 -4 71 -10 72 -5 1 -35 -6 -65 -16z"/>
<path d="M11713 2531 c-71 -24 -127 -65 -163 -118 -43 -66 -53 -105 -48 -197
6 -124 55 -202 162 -259 35 -19 57 -22 146 -22 96 0 109 2 150 27 25 14 56 38
70 53 l25 26 -47 45 -47 44 -46 -35 c-40 -30 -54 -35 -99 -35 -168 0 -229 231
-87 327 54 37 145 28 213 -19 15 -11 23 -7 54 22 60 58 60 64 6 99 -95 61
-194 75 -289 42z"/>
<path d="M12670 2536 c-97 -27 -166 -80 -206 -158 -26 -50 -30 -183 -9 -253
21 -67 80 -131 152 -167 41 -19 63 -23 148 -23 93 0 104 2 155 31 63 35 121
105 140 167 7 23 12 74 12 114 -1 135 -77 239 -207 281 -73 24 -118 26 -185 8z
m122 -126 c28 0 96 -67 109 -107 52 -158 -103 -305 -236 -223 -96 59 -101 244
-9 305 36 23 74 35 99 30 11 -3 28 -5 37 -5z"/>
<path d="M13296 2530 c-85 -33 -126 -88 -126 -170 0 -85 37 -121 175 -169 50
-18 100 -39 113 -47 31 -20 28 -58 -5 -84 -37 -29 -105 -22 -188 19 -32 16
-63 27 -67 24 -5 -2 -20 -23 -34 -45 -30 -48 -26 -56 52 -93 102 -48 246 -49
328 -1 78 46 107 145 66 225 -24 48 -64 74 -176 111 -125 42 -146 66 -99 110
20 19 32 22 73 18 27 -3 70 -15 96 -28 26 -12 48 -21 49 -19 43 65 57 92 52
100 -4 5 -25 18 -48 28 -103 45 -182 52 -261 21z"/>
<path d="M15000 2536 c-105 -29 -162 -76 -204 -165 -16 -36 -21 -66 -21 -136
0 -78 4 -97 28 -147 30 -61 65 -96 131 -130 58 -30 187 -37 258 -13 47 15 128
63 128 75 -1 8 -78 90 -85 90 -3 0 -22 -12 -41 -27 -42 -31 -126 -43 -174 -23
-40 17 -90 75 -90 105 l0 25 215 0 215 0 0 73 c0 142 -76 239 -215 276 -50 14
-88 13 -145 -3z m148 -133 c27 -17 62 -71 62 -95 0 -16 -13 -18 -135 -18 -153
0 -162 5 -125 65 43 69 131 91 198 48z"/>
<path d="M16729 2535 c-56 -15 -139 -55 -139 -67 0 -5 12 -27 27 -49 17 -27
32 -39 42 -35 9 2 34 12 56 20 49 18 141 20 175 3 27 -13 65 -80 55 -97 -4 -6
-50 -10 -109 -10 -170 0 -250 -40 -275 -137 -20 -75 7 -148 76 -200 31 -24 47
-28 113 -31 80 -4 138 14 169 52 17 20 31 11 31 -20 0 -23 2 -24 70 -24 l70 0
0 218 c0 247 -6 271 -78 333 -66 56 -177 74 -283 44z m216 -355 c19 -61 -61
-140 -142 -140 -15 0 -43 9 -60 20 -28 17 -33 25 -33 59 0 63 31 81 141 81 79
0 88 -2 94 -20z"/>
<path d="M17512 2537 c-18 -6 -47 -23 -64 -39 -39 -36 -46 -35 -50 5 l-3 32
-63 3 c-36 2 -69 -2 -77 -8 -11 -9 -12 -86 -8 -413 l5 -402 74 -3 74 -3 0 146
c0 80 2 145 5 145 2 0 24 -14 49 -31 36 -26 56 -32 115 -37 116 -8 200 36 259
137 25 42 27 54 27 156 0 94 -3 117 -23 160 -58 127 -195 192 -320 152z m125
-148 c41 -25 62 -64 70 -128 7 -59 -9 -112 -49 -157 -69 -78 -193 -59 -244 38
-22 42 -18 156 6 196 43 71 146 95 217 51z"/>
<path d="M18924 2536 c-54 -13 -135 -51 -145 -68 -4 -6 7 -30 23 -54 l29 -44
42 22 c33 17 59 22 120 23 74 0 80 -2 103 -28 13 -16 24 -41 24 -57 l0 -28
-117 -4 c-102 -3 -125 -6 -168 -28 -70 -35 -95 -76 -94 -154 1 -74 19 -110 78
-151 40 -28 49 -30 129 -30 82 0 90 2 135 33 26 18 48 29 48 25 1 -4 2 -17 3
-28 1 -18 9 -20 74 -23 l72 -3 0 165 c0 217 -13 310 -49 356 -57 74 -189 107
-307 76z m203 -353 c3 -9 0 -34 -8 -57 -25 -71 -130 -110 -189 -69 -34 23 -40
33 -40 70 0 54 36 73 142 73 73 0 90 -3 95 -17z"/>
<path d="M21900 2538 c-19 -5 -52 -23 -72 -39 -47 -37 -59 -37 -56 4 l3 32
-72 3 -73 3 0 -301 0 -300 74 0 74 0 4 193 c3 169 5 195 22 220 42 62 133 77
178 30 43 -45 48 -73 48 -264 l0 -180 73 3 72 3 0 180 c0 201 7 228 68 265 39
24 104 26 135 4 47 -32 52 -60 52 -264 l0 -191 73 3 72 3 -2 222 c-2 196 -4
228 -21 266 -60 135 -255 155 -368 38 l-35 -35 -29 36 c-54 65 -136 90 -220
66z"/>
<path d="M22870 2536 c-59 -17 -140 -54 -140 -65 0 -15 51 -101 60 -101 5 0
25 10 45 21 24 14 60 23 104 27 64 4 70 3 99 -24 18 -16 35 -43 38 -60 l6 -32
-128 -4 c-146 -4 -187 -17 -231 -75 -56 -74 -36 -199 42 -259 30 -22 50 -29
101 -32 82 -5 123 3 169 33 40 28 56 26 48 -5 -5 -19 0 -20 71 -20 l76 0 0
203 c0 242 -9 286 -69 340 -67 61 -185 82 -291 53z m208 -378 c3 -30 -3 -42
-31 -71 -57 -56 -147 -61 -187 -10 -27 34 -25 69 5 99 23 23 30 25 117 22 l93
-3 3 -37z"/>
<path d="M23635 2529 c-22 -11 -50 -31 -63 -45 -28 -30 -45 -22 -37 17 5 24 3
29 -17 34 -13 3 -49 5 -79 3 l-54 -3 -3 -298 -2 -298 75 3 75 3 2 187 c3 204
6 213 71 261 36 28 107 28 143 2 46 -35 55 -81 53 -275 l-1 -175 71 -3 c59 -2
72 0 78 14 3 9 2 116 -3 238 -9 221 -9 223 -37 265 -53 80 -184 114 -272 70z"/>
<path d="M24305 2543 c-286 -78 -332 -451 -72 -585 59 -30 176 -36 252 -13 70
22 144 86 176 152 34 70 34 208 0 277 -51 103 -151 166 -270 172 -36 2 -75 0
-86 -3z m131 -142 c86 -39 126 -148 88 -239 -44 -107 -164 -143 -245 -75 -44
37 -60 77 -61 147 0 73 17 114 64 149 54 41 94 45 154 18z"/>
<path d="M10510 2525 c0 -8 11 -39 24 -69 13 -30 47 -117 76 -193 28 -76 55
-147 60 -158 9 -23 45 -121 54 -147 5 -15 18 -18 96 -18 59 0 90 4 90 11 0 6
36 104 81 218 44 113 87 224 96 246 8 22 21 55 29 73 8 18 12 38 9 43 -4 5
-37 9 -75 9 -80 0 -73 8 -119 -130 -35 -103 -99 -259 -112 -274 -5 -5 -11 -1
-15 10 -3 10 -10 28 -15 39 -16 38 -61 160 -90 250 -17 49 -35 93 -42 97 -7 4
-42 8 -79 8 -53 0 -68 -3 -68 -15z"/>
<path d="M11230 2240 c0 -163 2 -299 4 -301 2 -2 36 -2 76 -1 l71 4 -2 288
c-1 159 -5 293 -8 297 -3 4 -36 8 -73 8 l-68 1 0 -296z"/>
<path d="M12167 2533 c-3 -4 -4 -138 -2 -298 l2 -290 77 -3 76 -3 -2 298 -3
298 -72 3 c-39 2 -73 -1 -76 -5z"/>
<path d="M17990 2536 c-3 -2 -5 -136 -5 -298 l0 -293 78 -3 77 -3 -2 298 -3
298 -70 3 c-39 1 -73 1 -75 -2z"/>
<path d="M20914 2531 c-10 -10 -3 -430 7 -462 29 -87 102 -138 195 -139 79 0
110 9 154 47 41 35 45 34 52 -12 3 -18 12 -20 76 -23 l72 -3 0 301 0 301 -72
-3 -73 -3 -5 -190 c-5 -203 -8 -215 -61 -259 -51 -44 -139 -32 -176 23 -15 22
-19 57 -23 226 l-5 199 -68 1 c-38 0 -71 -2 -73 -4z"/>
<path d="M25292 2472 c-36 -11 -93 -62 -108 -98 -42 -101 3 -207 109 -252 80
-34 192 21 226 111 24 61 1 158 -45 199 -45 40 -122 57 -182 40z"/>
</g>
</svg>
